{"glyphs":{"0":{"ha":746,"x_min":34,"x_max":948,"o":"m 359 203 l 495 203 l 623 678 l 487 678 l 359 203 m 34 0 l 270 882 l 948 882 l 712 0 l 34 0 z "},"1":{"ha":339,"x_min":34,"x_max":578,"o":"m 578 1017 l 305 0 l 34 0 l 270 882 l 578 1017 z "},"2":{"ha":746,"x_min":34,"x_max":948,"o":"m 396 339 l 359 203 l 495 203 l 532 339 l 396 339 m 586 543 l 623 678 l 487 678 l 450 543 l 586 543 m 532 339 l 766 203 l 712 0 l 34 0 l 179 543 l 450 543 l 216 678 l 270 882 l 948 882 l 803 339 l 532 339 z "},"3":{"ha":746,"x_min":34,"x_max":948,"o":"m 532 339 l 125 339 l 247 543 l 586 543 l 623 678 l 216 678 l 338 882 l 948 882 l 712 0 l 34 0 l 156 203 l 495 203 l 532 339 z "},"4":{"ha":746,"x_min":125,"x_max":948,"o":"m 125 339 l 270 882 l 541 882 l 450 543 l 586 543 l 677 882 l 948 882 l 712 0 l 404 -136 l 532 339 l 125 339 z "},"5":{"ha":746,"x_min":34,"x_max":948,"o":"m 396 339 l 359 203 l 495 203 l 532 339 l 396 339 m 396 339 l 125 339 l 270 882 l 948 882 l 894 678 l 487 678 l 450 543 l 857 543 l 712 0 l 34 0 l 88 203 l 396 339 z "},"6":{"ha":746,"x_min":34,"x_max":948,"o":"m 359 203 l 495 203 l 513 271 l 396 339 l 359 203 m 487 678 l 469 610 l 821 407 l 712 0 l 34 0 l 270 882 l 948 882 l 894 678 l 487 678 z "},"7":{"ha":746,"x_min":143,"x_max":948,"o":"m 948 882 l 712 0 l 404 -136 l 623 678 l 487 678 l 450 543 l 143 407 l 270 882 l 948 882 z "},"8":{"ha":746,"x_min":34,"x_max":948,"o":"m 487 678 l 450 543 l 586 543 l 623 678 l 487 678 m 34 0 l 270 882 l 948 882 l 712 0 l 34 0 m 359 203 l 495 203 l 532 339 l 396 339 l 359 203 z "},"9":{"ha":746,"x_min":34,"x_max":948,"o":"m 948 882 l 712 0 l 34 0 l 88 203 l 495 203 l 513 271 l 161 475 l 270 882 l 948 882 m 623 678 l 487 678 l 469 610 l 586 543 l 623 678 z "},"\u0000":{"ha":0,"x_min":0,"x_max":0,"o":""},"\u001d":{"ha":0,"x_min":0,"x_max":0,"o":""}," ":{"ha":345,"x_min":0,"x_max":0,"o":""}," ":{"ha":345,"x_min":0,"x_max":0,"o":""},"!":{"ha":339,"x_min":34,"x_max":596,"o":"m 106 271 l 288 949 l 596 1085 l 378 271 l 106 271 m 359 203 l 305 0 l 34 0 l 88 203 l 359 203 z "},"\"":{"ha":678,"x_min":234,"x_max":917,"o":"m 505 746 l 234 746 l 307 1017 l 578 1017 l 505 746 m 844 746 l 573 746 l 646 1017 l 917 1017 l 844 746 z "},"#":{"ha":882,"x_min":65,"x_max":1071,"o":"m 211 407 l 247 543 l 179 543 l 234 746 l 302 746 l 356 949 l 627 949 l 573 746 l 709 746 l 763 949 l 1071 1085 l 980 746 l 1048 746 l 993 543 l 925 543 l 889 407 l 957 407 l 902 203 l 834 203 l 780 0 l 509 0 l 563 203 l 427 203 l 373 0 l 65 -136 l 156 203 l 88 203 l 143 407 l 211 407 m 518 543 l 482 407 l 618 407 l 654 543 l 518 543 z "},"$":{"ha":746,"x_min":34,"x_max":948,"o":"m 473 882 l 492 949 l 800 1085 l 745 882 l 948 882 l 876 610 l 604 610 l 623 678 l 487 678 l 450 543 l 857 543 l 712 0 l 509 0 l 490 -68 l 183 -203 l 237 0 l 34 0 l 106 271 l 378 271 l 359 203 l 495 203 l 532 339 l 125 339 l 270 882 l 473 882 z "},"%":{"ha":814,"x_min":34,"x_max":1016,"o":"m 487 678 l 283 678 l 338 882 l 541 882 l 487 678 m 712 0 l 509 0 l 563 203 l 766 203 l 712 0 m 745 882 l 1016 882 l 305 0 l 34 0 l 745 882 z "},"&":{"ha":814,"x_min":34,"x_max":948,"o":"m 487 678 l 450 543 l 586 543 l 623 678 l 487 678 m 359 203 l 495 203 l 532 339 l 396 339 l 359 203 m 441 0 l 34 0 l 125 339 l 254 441 l 179 543 l 270 882 l 948 882 l 857 543 l 728 441 l 803 339 l 766 203 l 834 203 l 780 0 l 712 0 l 694 -68 l 387 -203 l 441 0 z "},"'":{"ha":339,"x_min":197,"x_max":578,"o":"m 469 610 l 197 610 l 307 1017 l 578 1017 l 469 610 z "},"(":{"ha":407,"x_min":16,"x_max":664,"o":"m 664 1085 l 609 882 l 541 882 l 342 136 l 410 136 l 355 -68 l 16 -68 l 325 1085 l 664 1085 z "},")":{"ha":407,"x_min":16,"x_max":664,"o":"m 325 1085 l 664 1085 l 355 -68 l 16 -68 l 71 136 l 138 136 l 338 882 l 270 882 l 325 1085 z "},"*":{"ha":543,"x_min":216,"x_max":709,"o":"m 406 631 l 265 522 l 231 570 l 370 678 l 216 678 l 234 746 l 391 746 l 311 858 l 372 905 l 450 795 l 492 949 l 559 949 l 517 793 l 659 902 l 693 854 l 554 746 l 709 746 l 690 678 l 534 678 l 613 566 l 552 519 l 474 629 l 433 475 l 365 475 l 406 631 z "},"+":{"ha":746,"x_min":106,"x_max":840,"o":"m 604 475 l 840 475 l 785 271 l 549 271 l 477 0 l 273 0 l 346 271 l 106 271 l 161 475 l 401 475 l 473 746 l 677 746 l 604 475 z "},",":{"ha":339,"x_min":-20,"x_max":359,"o":"m 251 -203 l -20 -203 l 88 203 l 359 203 l 251 -203 z "},"-":{"ha":746,"x_min":106,"x_max":840,"o":"m 785 271 l 106 271 l 161 475 l 840 475 l 785 271 z "},"­":{"ha":746,"x_min":106,"x_max":840,"o":"m 785 271 l 106 271 l 161 475 l 840 475 l 785 271 z "},".":{"ha":339,"x_min":34,"x_max":359,"o":"m 305 0 l 34 0 l 88 203 l 359 203 l 305 0 z "},"/":{"ha":814,"x_min":34,"x_max":1016,"o":"m 34 0 l 745 882 l 1016 882 l 305 0 l 34 0 z "},":":{"ha":339,"x_min":34,"x_max":450,"o":"m 305 0 l 34 0 l 88 203 l 359 203 l 305 0 m 396 339 l 125 339 l 179 543 l 450 543 l 396 339 z "},";":{"ha":339,"x_min":-20,"x_max":359,"o":"m 251 -203 l -20 -203 l 88 203 l 359 203 l 251 -203 m 305 339 l 34 339 l 88 543 l 359 543 l 305 339 z "},";":{"ha":339,"x_min":-20,"x_max":359,"o":"m 251 -203 l -20 -203 l 88 203 l 359 203 l 251 -203 m 305 339 l 34 339 l 88 543 l 359 543 l 305 339 z "},"<":{"ha":475,"x_min":143,"x_max":586,"o":"m 143 407 l 487 678 l 586 543 l 414 407 l 513 271 l 342 136 l 143 407 z "},"=":{"ha":543,"x_min":88,"x_max":690,"o":"m 563 203 l 88 203 l 143 407 l 618 407 l 563 203 m 636 475 l 161 475 l 216 678 l 690 678 l 636 475 z "},">":{"ha":475,"x_min":106,"x_max":550,"o":"m 206 136 l 106 271 l 279 407 l 179 543 l 351 678 l 550 407 l 206 136 z "},"?":{"ha":746,"x_min":161,"x_max":948,"o":"m 600 339 l 581 271 l 310 271 l 382 543 l 654 543 l 690 678 l 419 678 l 401 610 l 161 475 l 270 882 l 948 882 l 803 339 l 600 339 m 563 203 l 509 0 l 237 0 l 292 203 l 563 203 z "},"@":{"ha":746,"x_min":34,"x_max":948,"o":"m 568 475 l 704 475 l 777 746 l 370 746 l 206 136 l 613 136 l 631 203 l 785 271 l 712 0 l 34 0 l 270 882 l 948 882 l 803 339 l 396 339 l 450 543 l 604 610 l 568 475 z "},"A":{"ha":746,"x_min":34,"x_max":948,"o":"m 948 882 l 675 -136 l 441 0 l 513 271 l 396 339 l 305 0 l 34 0 l 270 882 l 948 882 m 623 678 l 487 678 l 469 610 l 586 543 l 623 678 z "},"B":{"ha":746,"x_min":34,"x_max":948,"o":"m 487 678 l 450 543 l 604 610 l 623 678 l 487 678 m 34 0 l 270 882 l 948 882 l 840 475 l 686 407 l 821 407 l 712 0 l 34 0 m 495 203 l 532 339 l 378 271 l 359 203 l 495 203 z "},"C":{"ha":746,"x_min":34,"x_max":948,"o":"m 623 678 l 487 678 l 359 203 l 495 203 l 532 339 l 840 475 l 712 0 l 34 0 l 270 882 l 948 882 l 876 610 l 568 475 l 623 678 z "},"D":{"ha":746,"x_min":34,"x_max":912,"o":"m 359 203 l 495 203 l 604 610 l 487 678 l 359 203 m 34 0 l 270 882 l 677 882 l 912 746 l 712 0 l 34 0 z "},"E":{"ha":746,"x_min":34,"x_max":894,"o":"m 359 203 l 699 203 l 712 0 l 34 0 l 270 882 l 880 882 l 894 678 l 487 678 l 450 543 l 654 543 l 667 339 l 396 339 l 359 203 z "},"F":{"ha":746,"x_min":-3,"x_max":894,"o":"m 880 882 l 894 678 l 487 678 l 450 543 l 654 543 l 667 339 l 396 339 l 305 0 l -3 -136 l 270 882 l 880 882 z "},"G":{"ha":746,"x_min":34,"x_max":948,"o":"m 623 678 l 487 678 l 359 203 l 495 203 l 550 407 l 857 543 l 712 0 l 34 0 l 270 882 l 948 882 l 894 678 l 586 543 l 623 678 z "},"H":{"ha":746,"x_min":34,"x_max":948,"o":"m 532 339 l 396 339 l 305 0 l 34 0 l 307 1017 l 541 882 l 450 543 l 586 543 l 677 882 l 948 882 l 675 -136 l 441 0 l 532 339 z "},"I":{"ha":339,"x_min":34,"x_max":541,"o":"m 307 1017 l 541 882 l 305 0 l 34 0 l 307 1017 z "},"J":{"ha":746,"x_min":34,"x_max":985,"o":"m 34 0 l 106 271 l 414 407 l 359 203 l 495 203 l 677 882 l 985 1017 l 712 0 l 34 0 z "},"K":{"ha":746,"x_min":-3,"x_max":912,"o":"m 378 271 l 305 0 l -3 -136 l 325 1085 l 559 949 l 450 543 l 604 610 l 677 882 l 912 746 l 840 475 l 686 407 l 821 407 l 712 0 l 441 0 l 532 339 l 378 271 z "},"L":{"ha":644,"x_min":34,"x_max":631,"o":"m 34 0 l 307 1017 l 541 882 l 359 203 l 631 203 l 509 0 l 34 0 z "},"M":{"ha":1153,"x_min":34,"x_max":1355,"o":"m 1029 678 l 894 678 l 712 0 l 441 0 l 623 678 l 487 678 l 305 0 l 34 0 l 270 882 l 1355 882 l 1082 -136 l 848 0 l 1029 678 z "},"N":{"ha":746,"x_min":34,"x_max":948,"o":"m 948 882 l 712 0 l 404 -136 l 623 678 l 487 678 l 305 0 l 34 0 l 270 882 l 948 882 z "},"O":{"ha":746,"x_min":34,"x_max":948,"o":"m 359 203 l 495 203 l 623 678 l 487 678 l 359 203 m 34 0 l 270 882 l 948 882 l 712 0 l 34 0 z "},"P":{"ha":746,"x_min":-3,"x_max":948,"o":"m 487 678 l 450 543 l 604 610 l 623 678 l 487 678 m 378 271 l 305 0 l -3 -136 l 270 882 l 948 882 l 840 475 l 378 271 z "},"Q":{"ha":746,"x_min":34,"x_max":948,"o":"m 359 203 l 495 203 l 623 678 l 487 678 l 359 203 m 237 0 l 34 0 l 270 882 l 948 882 l 712 0 l 509 0 l 436 -271 l 201 -136 l 237 0 z "},"R":{"ha":746,"x_min":-3,"x_max":948,"o":"m 487 678 l 450 543 l 604 610 l 623 678 l 487 678 m 532 339 l 378 271 l 305 0 l -3 -136 l 270 882 l 948 882 l 840 475 l 686 407 l 821 407 l 712 0 l 441 0 l 532 339 z "},"S":{"ha":746,"x_min":34,"x_max":948,"o":"m 396 339 l 359 203 l 495 203 l 532 339 l 396 339 m 586 543 l 623 678 l 487 678 l 450 543 l 586 543 m 396 339 l 125 339 l 270 882 l 948 882 l 894 678 l 586 543 l 857 543 l 712 0 l 34 0 l 88 203 l 396 339 z "},"T":{"ha":746,"x_min":216,"x_max":948,"o":"m 419 678 l 216 678 l 270 882 l 948 882 l 894 678 l 690 678 l 472 -136 l 237 0 l 419 678 z "},"U":{"ha":746,"x_min":34,"x_max":948,"o":"m 34 0 l 270 882 l 541 882 l 359 203 l 495 203 l 713 1017 l 948 882 l 712 0 l 34 0 z "},"V":{"ha":746,"x_min":106,"x_max":948,"o":"m 106 271 l 270 882 l 541 882 l 396 339 l 446 271 l 532 339 l 677 882 l 948 882 l 785 271 l 355 -68 l 106 271 z "},"W":{"ha":1153,"x_min":34,"x_max":1392,"o":"m 495 203 l 677 882 l 948 882 l 766 203 l 902 203 l 1084 882 l 1392 1017 l 1119 0 l 34 0 l 270 882 l 541 882 l 359 203 l 495 203 z "},"X":{"ha":746,"x_min":34,"x_max":948,"o":"m 513 271 l 396 339 l 305 0 l 34 0 l 125 339 l 279 407 l 161 475 l 307 1017 l 541 882 l 469 610 l 586 543 l 677 882 l 948 882 l 857 543 l 704 475 l 821 407 l 675 -136 l 441 0 l 513 271 z "},"Y":{"ha":746,"x_min":161,"x_max":1003,"o":"m 513 271 l 161 475 l 234 746 l 541 882 l 469 610 l 586 543 l 695 949 l 1003 1085 l 658 -203 l 422 -68 l 513 271 z "},"Z":{"ha":746,"x_min":34,"x_max":948,"o":"m 396 339 l 359 203 l 495 203 l 532 339 l 396 339 m 586 543 l 623 678 l 487 678 l 450 543 l 586 543 m 532 339 l 766 203 l 712 0 l 34 0 l 179 543 l 450 543 l 216 678 l 270 882 l 948 882 l 803 339 l 532 339 z "},"[":{"ha":407,"x_min":16,"x_max":664,"o":"m 664 1085 l 609 882 l 541 882 l 342 136 l 410 136 l 355 -68 l 16 -68 l 325 1085 l 664 1085 z "},"\\":{"ha":814,"x_min":270,"x_max":780,"o":"m 780 0 l 509 0 l 270 882 l 541 882 l 780 0 z "},"]":{"ha":407,"x_min":16,"x_max":664,"o":"m 325 1085 l 664 1085 l 355 -68 l 16 -68 l 71 136 l 138 136 l 338 882 l 270 882 l 325 1085 z "},"^":{"ha":339,"x_min":197,"x_max":578,"o":"m 469 610 l 197 610 l 307 1017 l 578 1017 l 469 610 z "},"_":{"ha":746,"x_min":-20,"x_max":712,"o":"m 658 -203 l -20 -203 l 34 0 l 712 0 l 658 -203 z "},"`":{"ha":339,"x_min":197,"x_max":578,"o":"m 469 610 l 197 610 l 307 1017 l 578 1017 l 469 610 z "},"a":{"ha":746,"x_min":-3,"x_max":948,"o":"m 270 882 l 948 882 l 712 0 l 441 0 l 532 339 l 378 271 l 305 0 l -3 -136 l 270 882 m 487 678 l 450 543 l 604 610 l 623 678 l 487 678 z "},"b":{"ha":746,"x_min":34,"x_max":948,"o":"m 487 678 l 450 543 l 604 610 l 623 678 l 487 678 m 34 0 l 270 882 l 948 882 l 840 475 l 686 407 l 821 407 l 712 0 l 34 0 m 495 203 l 532 339 l 378 271 l 359 203 l 495 203 z "},"c":{"ha":746,"x_min":34,"x_max":948,"o":"m 623 678 l 487 678 l 359 203 l 495 203 l 532 339 l 840 475 l 712 0 l 34 0 l 270 882 l 948 882 l 876 610 l 568 475 l 623 678 z "},"d":{"ha":746,"x_min":34,"x_max":894,"o":"m 359 203 l 495 203 l 586 543 l 469 610 l 359 203 m 34 0 l 307 1017 l 894 678 l 712 0 l 34 0 z "},"e":{"ha":746,"x_min":34,"x_max":894,"o":"m 450 543 l 654 543 l 667 339 l 396 339 l 359 203 l 699 203 l 712 0 l 34 0 l 270 882 l 880 882 l 894 678 l 487 678 l 450 543 z "},"f":{"ha":746,"x_min":-3,"x_max":894,"o":"m 880 882 l 894 678 l 487 678 l 450 543 l 654 543 l 667 339 l 396 339 l 305 0 l -3 -136 l 270 882 l 880 882 z "},"g":{"ha":746,"x_min":34,"x_max":948,"o":"m 623 678 l 487 678 l 359 203 l 495 203 l 550 407 l 857 543 l 712 0 l 34 0 l 270 882 l 948 882 l 894 678 l 586 543 l 623 678 z "},"h":{"ha":746,"x_min":-3,"x_max":985,"o":"m 396 339 l 305 0 l -3 -136 l 270 882 l 541 882 l 450 543 l 586 543 l 677 882 l 985 1017 l 712 0 l 441 0 l 532 339 l 396 339 z "},"i":{"ha":339,"x_min":34,"x_max":578,"o":"m 578 1017 l 305 0 l 34 0 l 270 882 l 578 1017 z "},"j":{"ha":475,"x_min":34,"x_max":732,"o":"m 387 -203 l 47 -203 l 34 0 l 170 0 l 424 949 l 732 1085 l 387 -203 z "},"k":{"ha":746,"x_min":-3,"x_max":912,"o":"m 378 271 l 305 0 l -3 -136 l 325 1085 l 559 949 l 450 543 l 604 610 l 677 882 l 912 746 l 840 475 l 686 407 l 821 407 l 712 0 l 441 0 l 532 339 l 378 271 z "},"l":{"ha":475,"x_min":34,"x_max":541,"o":"m 34 0 l 307 1017 l 541 882 l 359 203 l 495 203 l 373 0 l 34 0 z "},"m":{"ha":1153,"x_min":-3,"x_max":1355,"o":"m 487 678 l 305 0 l -3 -136 l 270 882 l 1355 882 l 1119 0 l 848 0 l 1029 678 l 894 678 l 712 0 l 441 0 l 623 678 l 487 678 z "},"n":{"ha":746,"x_min":34,"x_max":948,"o":"m 948 882 l 675 -136 l 441 0 l 623 678 l 487 678 l 305 0 l 34 0 l 270 882 l 948 882 z "},"o":{"ha":746,"x_min":34,"x_max":948,"o":"m 359 203 l 495 203 l 623 678 l 487 678 l 359 203 m 34 0 l 270 882 l 948 882 l 712 0 l 34 0 z "},"p":{"ha":746,"x_min":-3,"x_max":948,"o":"m 305 0 l -3 -136 l 270 882 l 948 882 l 840 475 l 454 305 l 527 576 l 604 610 l 623 678 l 487 678 l 305 0 z "},"q":{"ha":746,"x_min":34,"x_max":948,"o":"m 359 203 l 495 203 l 623 678 l 487 678 l 359 203 m 237 0 l 34 0 l 270 882 l 948 882 l 712 0 l 509 0 l 472 -136 l 165 -271 l 237 0 z "},"r":{"ha":746,"x_min":-3,"x_max":948,"o":"m 487 678 l 450 543 l 604 610 l 623 678 l 487 678 m 532 339 l 378 271 l 305 0 l -3 -136 l 270 882 l 948 882 l 840 475 l 686 407 l 821 407 l 712 0 l 441 0 l 532 339 z "},"s":{"ha":746,"x_min":34,"x_max":948,"o":"m 396 339 l 359 203 l 495 203 l 532 339 l 396 339 m 586 543 l 623 678 l 487 678 l 450 543 l 586 543 m 396 339 l 125 339 l 270 882 l 948 882 l 894 678 l 586 543 l 857 543 l 712 0 l 34 0 l 88 203 l 396 339 z "},"t":{"ha":746,"x_min":201,"x_max":948,"o":"m 690 678 l 509 0 l 201 -136 l 419 678 l 216 678 l 270 882 l 948 882 l 894 678 l 690 678 z "},"u":{"ha":746,"x_min":34,"x_max":985,"o":"m 34 0 l 270 882 l 541 882 l 359 203 l 495 203 l 677 882 l 985 1017 l 712 0 l 34 0 z "},"v":{"ha":746,"x_min":106,"x_max":948,"o":"m 106 271 l 270 882 l 541 882 l 396 339 l 446 271 l 532 339 l 677 882 l 948 882 l 785 271 l 355 -68 l 106 271 z "},"w":{"ha":1153,"x_min":34,"x_max":1355,"o":"m 495 203 l 677 882 l 948 882 l 766 203 l 902 203 l 1120 1017 l 1355 882 l 1119 0 l 34 0 l 270 882 l 541 882 l 359 203 l 495 203 z "},"x":{"ha":746,"x_min":-3,"x_max":985,"o":"m 378 271 l 305 0 l -3 -136 l 143 407 l 297 475 l 179 543 l 270 882 l 541 882 l 450 543 l 604 610 l 677 882 l 985 1017 l 840 475 l 686 407 l 803 339 l 712 0 l 441 0 l 532 339 l 378 271 z "},"y":{"ha":746,"x_min":161,"x_max":1003,"o":"m 513 271 l 161 475 l 234 746 l 541 882 l 469 610 l 586 543 l 695 949 l 1003 1085 l 658 -203 l 422 -68 l 513 271 z "},"z":{"ha":746,"x_min":34,"x_max":948,"o":"m 396 339 l 359 203 l 495 203 l 532 339 l 396 339 m 586 543 l 623 678 l 487 678 l 450 543 l 586 543 m 532 339 l 766 203 l 712 0 l 34 0 l 179 543 l 450 543 l 216 678 l 270 882 l 948 882 l 803 339 l 532 339 z "},"{":{"ha":475,"x_min":83,"x_max":732,"o":"m 265 610 l 393 1085 l 732 1085 l 677 882 l 609 882 l 410 136 l 477 136 l 422 -68 l 83 -68 l 211 407 l 143 407 l 197 610 l 265 610 z "},"|":{"ha":339,"x_min":34,"x_max":559,"o":"m 305 0 l 34 0 l 288 949 l 559 949 l 305 0 z "},"}":{"ha":475,"x_min":16,"x_max":664,"o":"m 604 610 l 550 407 l 482 407 l 355 -68 l 16 -68 l 71 136 l 138 136 l 338 882 l 270 882 l 325 1085 l 664 1085 l 536 610 l 604 610 z "},"~":{"ha":543,"x_min":125,"x_max":654,"o":"m 600 339 l 125 339 l 179 543 l 654 543 l 600 339 z "},"£":{"ha":814,"x_min":102,"x_max":1016,"o":"m 427 203 l 834 203 l 780 0 l 102 0 l 193 339 l 125 339 l 179 543 l 247 543 l 338 882 l 1016 882 l 962 678 l 654 543 l 690 678 l 555 678 l 518 543 l 586 543 l 600 339 l 464 339 l 427 203 z "},"¥":{"ha":746,"x_min":52,"x_max":948,"o":"m 310 271 l 328 339 l 125 339 l 270 882 l 541 882 l 450 543 l 586 543 l 677 882 l 948 882 l 803 339 l 600 339 l 581 271 l 785 271 l 730 68 l 527 68 l 509 0 l 237 0 l 256 68 l 52 68 l 106 271 l 310 271 z "},"€":{"ha":814,"x_min":102,"x_max":1016,"o":"m 943 610 l 672 610 l 690 678 l 555 678 l 518 543 l 857 543 l 871 339 l 464 339 l 427 203 l 563 203 l 581 271 l 852 271 l 780 0 l 102 0 l 193 339 l 125 339 l 179 543 l 247 543 l 338 882 l 1016 882 l 943 610 z "},"¨":{"ha":543,"x_min":288,"x_max":818,"o":"m 492 949 l 288 949 l 343 1153 l 547 1153 l 492 949 m 763 949 l 559 949 l 614 1153 l 818 1153 l 763 949 z "},"°":{"ha":339,"x_min":288,"x_max":632,"o":"m 510 1017 l 547 1153 l 411 1153 l 374 1017 l 510 1017 m 559 949 l 288 949 l 361 1221 l 632 1221 l 559 949 z "},"´":{"ha":407,"x_min":288,"x_max":700,"o":"m 559 949 l 288 949 l 429 1221 l 700 1221 l 559 949 z "},"Ð":{"ha":814,"x_min":102,"x_max":980,"o":"m 247 543 l 338 882 l 745 882 l 980 746 l 780 0 l 102 0 l 193 339 l 125 339 l 179 543 l 247 543 m 518 543 l 586 543 l 532 339 l 464 339 l 427 203 l 563 203 l 672 610 l 555 678 l 518 543 z "},"Þ":{"ha":746,"x_min":-3,"x_max":948,"o":"m 541 882 l 948 882 l 712 0 l 305 0 l 269 -136 l -3 -136 l 307 1017 l 578 1017 l 541 882 m 487 678 l 359 203 l 495 203 l 623 678 l 487 678 z "},"¡":{"ha":339,"x_min":34,"x_max":541,"o":"m 197 610 l 469 610 l 305 0 l 34 0 l 197 610 m 487 678 l 216 678 l 270 882 l 541 882 l 487 678 z "},"¢":{"ha":746,"x_min":43,"x_max":939,"o":"m 532 848 l 551 916 l 686 916 l 668 848 l 939 848 l 848 509 l 577 509 l 614 644 l 478 644 l 369 237 l 505 237 l 541 373 l 812 373 l 721 34 l 450 34 l 432 -34 l 296 -34 l 314 34 l 43 34 l 261 848 l 532 848 z "},"¿":{"ha":746,"x_min":34,"x_max":857,"o":"m 654 543 l 857 543 l 712 0 l 34 0 l 106 271 l 310 271 l 292 203 l 563 203 l 600 339 l 328 339 l 401 610 l 672 610 l 654 543 m 690 678 l 419 678 l 473 882 l 745 882 l 690 678 z "},"×":{"ha":746,"x_min":34,"x_max":912,"o":"m 430 213 l 237 0 l 34 0 l 371 373 l 234 746 l 437 746 l 516 533 l 709 746 l 912 746 l 574 373 l 712 0 l 509 0 l 430 213 z "},"ß":{"ha":746,"x_min":34,"x_max":948,"o":"m 487 678 l 450 543 l 604 610 l 623 678 l 487 678 m 305 0 l 34 0 l 270 882 l 948 882 l 840 475 l 686 407 l 821 407 l 712 0 l 373 0 l 427 203 l 495 203 l 532 339 l 378 271 l 305 0 z "},"÷":{"ha":746,"x_min":106,"x_max":840,"o":"m 785 271 l 106 271 l 161 475 l 840 475 l 785 271 m 476 0 l 273 0 l 327 203 l 530 203 l 476 0 m 621 543 l 418 543 l 473 746 l 676 746 l 621 543 z "},"þ":{"ha":746,"x_min":-3,"x_max":948,"o":"m 541 882 l 948 882 l 712 0 l 305 0 l 269 -136 l -3 -136 l 307 1017 l 578 1017 l 541 882 m 487 678 l 359 203 l 495 203 l 623 678 l 487 678 z "},"̀":{"ha":407,"x_min":593,"x_max":869,"o":"m 593 949 l 598 1221 l 869 1221 l 865 949 l 593 949 z "},"́":{"ha":407,"x_min":526,"x_max":937,"o":"m 797 949 l 526 949 l 666 1221 l 937 1221 l 797 949 z "},"̂":{"ha":407,"x_min":458,"x_max":802,"o":"m 664 1085 l 593 949 l 458 949 l 598 1221 l 802 1221 l 797 949 l 661 949 l 664 1085 z "},"̃":{"ha":543,"x_min":390,"x_max":901,"o":"m 578 1017 l 526 949 l 390 949 l 494 1085 l 698 1085 l 713 1017 l 766 1085 l 901 1085 l 797 949 l 593 949 l 578 1017 z "},"̄":{"ha":543,"x_min":288,"x_max":818,"o":"m 763 949 l 288 949 l 343 1153 l 818 1153 l 763 949 z "},"̅":{"ha":678,"x_min":288,"x_max":954,"o":"m 899 949 l 288 949 l 343 1153 l 954 1153 l 899 949 z "},"̆":{"ha":475,"x_min":288,"x_max":750,"o":"m 288 949 l 343 1153 l 479 1153 l 460 1085 l 596 1085 l 614 1153 l 750 1153 l 695 949 l 288 949 z "},"̇":{"ha":271,"x_min":288,"x_max":547,"o":"m 492 949 l 288 949 l 343 1153 l 547 1153 l 492 949 z "},"̈":{"ha":543,"x_min":288,"x_max":818,"o":"m 492 949 l 288 949 l 343 1153 l 547 1153 l 492 949 m 763 949 l 559 949 l 614 1153 l 818 1153 l 763 949 z "},"̉":{"ha":475,"x_min":288,"x_max":750,"o":"m 288 949 l 343 1153 l 479 1153 l 460 1085 l 596 1085 l 614 1153 l 750 1153 l 695 949 l 288 949 z "},"̊":{"ha":339,"x_min":492,"x_max":836,"o":"m 713 1017 l 750 1153 l 614 1153 l 578 1017 l 713 1017 m 763 949 l 492 949 l 564 1221 l 836 1221 l 763 949 z "},"̋":{"ha":746,"x_min":288,"x_max":1039,"o":"m 559 949 l 288 949 l 429 1221 l 700 1221 l 559 949 m 899 949 l 627 949 l 768 1221 l 1039 1221 l 899 949 z "},"̌":{"ha":407,"x_min":356,"x_max":700,"o":"m 494 1085 l 564 1221 l 700 1221 l 559 949 l 356 949 l 361 1221 l 496 1221 l 494 1085 z "},"À":{"ha":746,"x_min":34,"x_max":948,"o":"m 948 882 l 675 -136 l 441 0 l 513 271 l 396 339 l 305 0 l 34 0 l 270 882 l 948 882 m 623 678 l 487 678 l 469 610 l 586 543 l 623 678 m 503 949 l 508 1221 l 779 1221 l 774 949 l 503 949 z "},"Á":{"ha":746,"x_min":34,"x_max":960,"o":"m 948 882 l 675 -136 l 441 0 l 513 271 l 396 339 l 305 0 l 34 0 l 270 882 l 948 882 m 623 678 l 487 678 l 469 610 l 586 543 l 623 678 m 819 949 l 548 949 l 688 1221 l 960 1221 l 819 949 z "},"Â":{"ha":746,"x_min":34,"x_max":948,"o":"m 948 882 l 675 -136 l 441 0 l 513 271 l 396 339 l 305 0 l 34 0 l 270 882 l 948 882 m 623 678 l 487 678 l 469 610 l 586 543 l 623 678 m 663 1085 l 592 949 l 456 949 l 597 1221 l 800 1221 l 795 949 l 660 949 l 663 1085 z "},"Ã":{"ha":746,"x_min":34,"x_max":948,"o":"m 948 882 l 675 -136 l 441 0 l 513 271 l 396 339 l 305 0 l 34 0 l 270 882 l 948 882 m 623 678 l 487 678 l 469 610 l 586 543 l 623 678 m 576 1017 l 524 949 l 388 949 l 492 1085 l 696 1085 l 711 1017 l 764 1085 l 899 1085 l 795 949 l 591 949 l 576 1017 z "},"Ä":{"ha":746,"x_min":34,"x_max":948,"o":"m 948 882 l 675 -136 l 441 0 l 513 271 l 396 339 l 305 0 l 34 0 l 270 882 l 948 882 m 623 678 l 487 678 l 469 610 l 586 543 l 623 678 m 593 949 l 390 949 l 445 1153 l 648 1153 l 593 949 m 865 949 l 661 949 l 716 1153 l 920 1153 l 865 949 z "},"Å":{"ha":746,"x_min":34,"x_max":948,"o":"m 948 882 l 675 -136 l 441 0 l 513 271 l 396 339 l 305 0 l 34 0 l 270 882 l 948 882 m 623 678 l 487 678 l 469 610 l 586 543 l 623 678 m 713 1017 l 750 1153 l 614 1153 l 578 1017 l 713 1017 m 763 949 l 492 949 l 564 1221 l 836 1221 l 763 949 z "},"Æ":{"ha":1153,"x_min":34,"x_max":1355,"o":"m 532 339 l 396 339 l 305 0 l 34 0 l 270 882 l 1355 882 l 1301 678 l 894 678 l 857 543 l 1264 543 l 1210 339 l 803 339 l 766 203 l 1173 203 l 1119 0 l 441 0 l 532 339 m 623 678 l 487 678 l 450 543 l 586 543 l 623 678 z "},"Ç":{"ha":746,"x_min":34,"x_max":948,"o":"m 373 0 l 34 0 l 270 882 l 948 882 l 857 543 l 586 543 l 623 678 l 487 678 l 359 203 l 495 203 l 532 339 l 803 339 l 712 0 l 441 0 l 422 -68 l 490 -68 l 436 -271 l 233 -271 l 251 -203 l 387 -203 l 404 -136 l 336 -136 l 373 0 z "},"È":{"ha":746,"x_min":34,"x_max":894,"o":"m 359 203 l 699 203 l 712 0 l 34 0 l 270 882 l 880 882 l 894 678 l 487 678 l 450 543 l 654 543 l 667 339 l 396 339 l 359 203 m 503 949 l 508 1221 l 779 1221 l 774 949 l 503 949 z "},"É":{"ha":746,"x_min":34,"x_max":960,"o":"m 359 203 l 699 203 l 712 0 l 34 0 l 270 882 l 880 882 l 894 678 l 487 678 l 450 543 l 654 543 l 667 339 l 396 339 l 359 203 m 819 949 l 548 949 l 688 1221 l 960 1221 l 819 949 z "},"Ê":{"ha":746,"x_min":34,"x_max":894,"o":"m 359 203 l 699 203 l 712 0 l 34 0 l 270 882 l 880 882 l 894 678 l 487 678 l 450 543 l 654 543 l 667 339 l 396 339 l 359 203 m 663 1085 l 592 949 l 456 949 l 597 1221 l 800 1221 l 795 949 l 660 949 l 663 1085 z "},"Ë":{"ha":746,"x_min":34,"x_max":920,"o":"m 359 203 l 699 203 l 712 0 l 34 0 l 270 882 l 880 882 l 894 678 l 487 678 l 450 543 l 654 543 l 667 339 l 396 339 l 359 203 m 593 949 l 390 949 l 445 1153 l 648 1153 l 593 949 m 865 949 l 661 949 l 716 1153 l 920 1153 l 865 949 z "},"Ì":{"ha":339,"x_min":34,"x_max":576,"o":"m 307 1017 l 541 882 l 305 0 l 34 0 l 307 1017 m 300 949 l 304 1221 l 576 1221 l 571 949 l 300 949 z "},"Í":{"ha":339,"x_min":34,"x_max":756,"o":"m 307 1017 l 541 882 l 305 0 l 34 0 l 307 1017 m 616 949 l 345 949 l 485 1221 l 756 1221 l 616 949 z "},"Î":{"ha":339,"x_min":34,"x_max":597,"o":"m 307 1017 l 541 882 l 305 0 l 34 0 l 307 1017 m 459 1085 l 389 949 l 253 949 l 393 1221 l 597 1221 l 592 949 l 456 949 l 459 1085 z "},"Ï":{"ha":339,"x_min":34,"x_max":716,"o":"m 307 1017 l 541 882 l 305 0 l 34 0 l 307 1017 m 390 949 l 186 949 l 241 1153 l 445 1153 l 390 949 m 661 949 l 458 949 l 513 1153 l 716 1153 l 661 949 z "},"Ñ":{"ha":746,"x_min":34,"x_max":948,"o":"m 948 882 l 712 0 l 404 -136 l 623 678 l 487 678 l 305 0 l 34 0 l 270 882 l 948 882 m 576 1017 l 524 949 l 388 949 l 492 1085 l 696 1085 l 711 1017 l 764 1085 l 899 1085 l 795 949 l 591 949 l 576 1017 z "},"Ò":{"ha":746,"x_min":34,"x_max":948,"o":"m 359 203 l 495 203 l 623 678 l 487 678 l 359 203 m 34 0 l 270 882 l 948 882 l 712 0 l 34 0 m 503 949 l 508 1221 l 779 1221 l 774 949 l 503 949 z "},"Ó":{"ha":746,"x_min":34,"x_max":960,"o":"m 359 203 l 495 203 l 623 678 l 487 678 l 359 203 m 34 0 l 270 882 l 948 882 l 712 0 l 34 0 m 819 949 l 548 949 l 688 1221 l 960 1221 l 819 949 z "},"Ô":{"ha":746,"x_min":34,"x_max":948,"o":"m 359 203 l 495 203 l 623 678 l 487 678 l 359 203 m 34 0 l 270 882 l 948 882 l 712 0 l 34 0 m 663 1085 l 592 949 l 456 949 l 597 1221 l 800 1221 l 795 949 l 660 949 l 663 1085 z "},"Õ":{"ha":746,"x_min":34,"x_max":948,"o":"m 359 203 l 495 203 l 623 678 l 487 678 l 359 203 m 34 0 l 270 882 l 948 882 l 712 0 l 34 0 m 576 1017 l 524 949 l 388 949 l 492 1085 l 696 1085 l 711 1017 l 764 1085 l 899 1085 l 795 949 l 591 949 l 576 1017 z "},"Ö":{"ha":746,"x_min":34,"x_max":948,"o":"m 359 203 l 495 203 l 623 678 l 487 678 l 359 203 m 34 0 l 270 882 l 948 882 l 712 0 l 34 0 m 593 949 l 390 949 l 445 1153 l 648 1153 l 593 949 m 865 949 l 661 949 l 716 1153 l 920 1153 l 865 949 z "},"Ø":{"ha":746,"x_min":34,"x_max":948,"o":"m 359 203 l 495 203 l 623 678 l 487 678 l 359 203 m 34 0 l 270 882 l 948 882 l 712 0 l 34 0 z "},"Ù":{"ha":746,"x_min":34,"x_max":948,"o":"m 34 0 l 270 882 l 541 882 l 359 203 l 495 203 l 713 1017 l 948 882 l 712 0 l 34 0 m 503 949 l 508 1221 l 779 1221 l 774 949 l 503 949 z "},"Ú":{"ha":746,"x_min":34,"x_max":960,"o":"m 34 0 l 270 882 l 541 882 l 359 203 l 495 203 l 713 1017 l 948 882 l 712 0 l 34 0 m 819 949 l 548 949 l 688 1221 l 960 1221 l 819 949 z "},"Û":{"ha":746,"x_min":34,"x_max":948,"o":"m 34 0 l 270 882 l 541 882 l 359 203 l 495 203 l 713 1017 l 948 882 l 712 0 l 34 0 m 663 1085 l 592 949 l 456 949 l 597 1221 l 800 1221 l 795 949 l 660 949 l 663 1085 z "},"Ü":{"ha":746,"x_min":34,"x_max":948,"o":"m 34 0 l 270 882 l 541 882 l 359 203 l 495 203 l 713 1017 l 948 882 l 712 0 l 34 0 m 593 949 l 390 949 l 445 1153 l 648 1153 l 593 949 m 865 949 l 661 949 l 716 1153 l 920 1153 l 865 949 z "},"Ý":{"ha":746,"x_min":161,"x_max":1003,"o":"m 513 271 l 161 475 l 234 746 l 541 882 l 469 610 l 586 543 l 695 949 l 1003 1085 l 658 -203 l 422 -68 l 513 271 m 819 949 l 548 949 l 688 1221 l 960 1221 l 819 949 z "},"à":{"ha":746,"x_min":-3,"x_max":948,"o":"m 270 882 l 948 882 l 712 0 l 441 0 l 532 339 l 378 271 l 305 0 l -3 -136 l 270 882 m 487 678 l 450 543 l 604 610 l 623 678 l 487 678 m 503 949 l 508 1221 l 779 1221 l 774 949 l 503 949 z "},"á":{"ha":746,"x_min":-3,"x_max":960,"o":"m 270 882 l 948 882 l 712 0 l 441 0 l 532 339 l 378 271 l 305 0 l -3 -136 l 270 882 m 487 678 l 450 543 l 604 610 l 623 678 l 487 678 m 819 949 l 548 949 l 688 1221 l 960 1221 l 819 949 z "},"â":{"ha":746,"x_min":-3,"x_max":948,"o":"m 270 882 l 948 882 l 712 0 l 441 0 l 532 339 l 378 271 l 305 0 l -3 -136 l 270 882 m 487 678 l 450 543 l 604 610 l 623 678 l 487 678 m 663 1085 l 592 949 l 456 949 l 597 1221 l 800 1221 l 795 949 l 660 949 l 663 1085 z "},"ã":{"ha":746,"x_min":-3,"x_max":948,"o":"m 270 882 l 948 882 l 712 0 l 441 0 l 532 339 l 378 271 l 305 0 l -3 -136 l 270 882 m 487 678 l 450 543 l 604 610 l 623 678 l 487 678 m 576 1017 l 524 949 l 388 949 l 492 1085 l 696 1085 l 711 1017 l 764 1085 l 899 1085 l 795 949 l 591 949 l 576 1017 z "},"ä":{"ha":746,"x_min":-3,"x_max":948,"o":"m 270 882 l 948 882 l 712 0 l 441 0 l 532 339 l 378 271 l 305 0 l -3 -136 l 270 882 m 487 678 l 450 543 l 604 610 l 623 678 l 487 678 m 593 949 l 390 949 l 445 1153 l 648 1153 l 593 949 m 865 949 l 661 949 l 716 1153 l 920 1153 l 865 949 z "},"å":{"ha":746,"x_min":-3,"x_max":948,"o":"m 270 882 l 948 882 l 712 0 l 441 0 l 532 339 l 378 271 l 305 0 l -3 -136 l 270 882 m 487 678 l 450 543 l 604 610 l 623 678 l 487 678 m 713 1017 l 750 1153 l 614 1153 l 578 1017 l 713 1017 m 763 949 l 492 949 l 564 1221 l 836 1221 l 763 949 z "},"æ":{"ha":1153,"x_min":34,"x_max":1355,"o":"m 532 339 l 396 339 l 305 0 l 34 0 l 270 882 l 1355 882 l 1301 678 l 894 678 l 857 543 l 1264 543 l 1210 339 l 803 339 l 766 203 l 1173 203 l 1119 0 l 441 0 l 532 339 m 623 678 l 487 678 l 450 543 l 586 543 l 623 678 z "},"ç":{"ha":746,"x_min":34,"x_max":948,"o":"m 373 0 l 34 0 l 270 882 l 948 882 l 857 543 l 586 543 l 623 678 l 487 678 l 359 203 l 495 203 l 532 339 l 803 339 l 712 0 l 441 0 l 422 -68 l 490 -68 l 436 -271 l 233 -271 l 251 -203 l 387 -203 l 404 -136 l 336 -136 l 373 0 z "},"è":{"ha":746,"x_min":34,"x_max":894,"o":"m 450 543 l 654 543 l 667 339 l 396 339 l 359 203 l 699 203 l 712 0 l 34 0 l 270 882 l 880 882 l 894 678 l 487 678 l 450 543 m 503 949 l 508 1221 l 779 1221 l 774 949 l 503 949 z "},"é":{"ha":746,"x_min":34,"x_max":960,"o":"m 450 543 l 654 543 l 667 339 l 396 339 l 359 203 l 699 203 l 712 0 l 34 0 l 270 882 l 880 882 l 894 678 l 487 678 l 450 543 m 819 949 l 548 949 l 688 1221 l 960 1221 l 819 949 z "},"ê":{"ha":746,"x_min":34,"x_max":894,"o":"m 450 543 l 654 543 l 667 339 l 396 339 l 359 203 l 699 203 l 712 0 l 34 0 l 270 882 l 880 882 l 894 678 l 487 678 l 450 543 m 663 1085 l 592 949 l 456 949 l 597 1221 l 800 1221 l 795 949 l 660 949 l 663 1085 z "},"ë":{"ha":746,"x_min":34,"x_max":920,"o":"m 450 543 l 654 543 l 667 339 l 396 339 l 359 203 l 699 203 l 712 0 l 34 0 l 270 882 l 880 882 l 894 678 l 487 678 l 450 543 m 593 949 l 390 949 l 445 1153 l 648 1153 l 593 949 m 865 949 l 661 949 l 716 1153 l 920 1153 l 865 949 z "},"ì":{"ha":407,"x_min":90,"x_max":632,"o":"m 356 949 l 361 1221 l 632 1221 l 627 949 l 356 949 m 326 882 l 597 882 l 361 0 l 90 0 l 326 882 z "},"í":{"ha":427,"x_min":34,"x_max":720,"o":"m 580 949 l 309 949 l 449 1221 l 720 1221 l 580 949 m 270 882 l 541 882 l 305 0 l 34 0 l 270 882 z "},"î":{"ha":407,"x_min":69,"x_max":632,"o":"m 494 1085 l 424 949 l 288 949 l 429 1221 l 632 1221 l 627 949 l 492 949 l 494 1085 m 305 882 l 576 882 l 340 0 l 69 0 l 305 882 z "},"ï":{"ha":543,"x_min":136,"x_max":818,"o":"m 372 882 l 643 882 l 407 0 l 136 0 l 372 882 m 763 949 l 559 949 l 614 1153 l 818 1153 l 763 949 m 492 949 l 288 949 l 343 1153 l 547 1153 l 492 949 z "},"ð":{"ha":746,"x_min":34,"x_max":930,"o":"m 359 203 l 495 203 l 568 475 l 433 475 l 359 203 m 894 678 l 712 0 l 34 0 l 216 678 l 623 678 l 573 746 l 437 746 l 456 814 l 524 814 l 473 882 l 745 882 l 795 814 l 930 814 l 912 746 l 844 746 l 894 678 z "},"ñ":{"ha":746,"x_min":34,"x_max":948,"o":"m 948 882 l 675 -136 l 441 0 l 623 678 l 487 678 l 305 0 l 34 0 l 270 882 l 948 882 m 576 1017 l 524 949 l 388 949 l 492 1085 l 696 1085 l 711 1017 l 764 1085 l 899 1085 l 795 949 l 591 949 l 576 1017 z "},"ò":{"ha":746,"x_min":34,"x_max":948,"o":"m 359 203 l 495 203 l 623 678 l 487 678 l 359 203 m 34 0 l 270 882 l 948 882 l 712 0 l 34 0 m 503 949 l 508 1221 l 779 1221 l 774 949 l 503 949 z "},"ó":{"ha":746,"x_min":34,"x_max":960,"o":"m 359 203 l 495 203 l 623 678 l 487 678 l 359 203 m 34 0 l 270 882 l 948 882 l 712 0 l 34 0 m 819 949 l 548 949 l 688 1221 l 960 1221 l 819 949 z "},"ô":{"ha":746,"x_min":34,"x_max":948,"o":"m 359 203 l 495 203 l 623 678 l 487 678 l 359 203 m 34 0 l 270 882 l 948 882 l 712 0 l 34 0 m 663 1085 l 592 949 l 456 949 l 597 1221 l 800 1221 l 795 949 l 660 949 l 663 1085 z "},"õ":{"ha":746,"x_min":34,"x_max":948,"o":"m 359 203 l 495 203 l 623 678 l 487 678 l 359 203 m 34 0 l 270 882 l 948 882 l 712 0 l 34 0 m 576 1017 l 524 949 l 388 949 l 492 1085 l 696 1085 l 711 1017 l 764 1085 l 899 1085 l 795 949 l 591 949 l 576 1017 z "},"ö":{"ha":746,"x_min":34,"x_max":948,"o":"m 359 203 l 495 203 l 623 678 l 487 678 l 359 203 m 34 0 l 270 882 l 948 882 l 712 0 l 34 0 m 593 949 l 390 949 l 445 1153 l 648 1153 l 593 949 m 865 949 l 661 949 l 716 1153 l 920 1153 l 865 949 z "},"ø":{"ha":746,"x_min":34,"x_max":948,"o":"m 948 882 l 712 0 l 34 0 l 270 882 l 948 882 m 423 441 l 618 661 l 623 678 l 487 678 l 423 441 m 559 441 l 364 220 l 359 203 l 495 203 l 559 441 z "},"ù":{"ha":746,"x_min":34,"x_max":985,"o":"m 34 0 l 270 882 l 541 882 l 359 203 l 495 203 l 677 882 l 985 1017 l 712 0 l 34 0 m 503 949 l 508 1221 l 779 1221 l 774 949 l 503 949 z "},"ú":{"ha":746,"x_min":34,"x_max":985,"o":"m 34 0 l 270 882 l 541 882 l 359 203 l 495 203 l 677 882 l 985 1017 l 712 0 l 34 0 m 819 949 l 548 949 l 688 1221 l 960 1221 l 819 949 z "},"û":{"ha":746,"x_min":34,"x_max":985,"o":"m 34 0 l 270 882 l 541 882 l 359 203 l 495 203 l 677 882 l 985 1017 l 712 0 l 34 0 m 663 1085 l 592 949 l 456 949 l 597 1221 l 800 1221 l 795 949 l 660 949 l 663 1085 z "},"ü":{"ha":746,"x_min":34,"x_max":985,"o":"m 34 0 l 270 882 l 541 882 l 359 203 l 495 203 l 677 882 l 985 1017 l 712 0 l 34 0 m 593 949 l 390 949 l 445 1153 l 648 1153 l 593 949 m 865 949 l 661 949 l 716 1153 l 920 1153 l 865 949 z "},"ý":{"ha":746,"x_min":161,"x_max":1003,"o":"m 513 271 l 161 475 l 234 746 l 541 882 l 469 610 l 586 543 l 695 949 l 1003 1085 l 658 -203 l 422 -68 l 513 271 m 819 949 l 548 949 l 688 1221 l 960 1221 l 819 949 z "},"ÿ":{"ha":746,"x_min":161,"x_max":1003,"o":"m 513 271 l 161 475 l 234 746 l 541 882 l 469 610 l 586 543 l 695 949 l 1003 1085 l 658 -203 l 422 -68 l 513 271 m 593 949 l 390 949 l 445 1153 l 648 1153 l 593 949 m 865 949 l 661 949 l 716 1153 l 920 1153 l 865 949 z "},"̧":{"ha":271,"x_min":-39,"x_max":219,"o":"m 102 0 l 170 0 l 151 -68 l 219 -68 l 165 -271 l -39 -271 l -20 -203 l 115 -203 l 133 -136 l 65 -136 l 102 0 z "},"¤":{"ha":882,"x_min":34,"x_max":1066,"o":"m 581 271 l 654 543 l 518 543 l 446 271 l 581 271 m 256 68 l 170 0 l 34 0 l 206 136 l 351 678 l 252 814 l 388 814 l 437 746 l 844 746 l 930 814 l 1066 814 l 894 678 l 749 136 l 848 0 l 712 0 l 663 68 l 256 68 z "},"¦":{"ha":339,"x_min":34,"x_max":559,"o":"m 414 407 l 305 0 l 34 0 l 143 407 l 414 407 m 179 543 l 288 949 l 559 949 l 450 543 l 179 543 z "},"§":{"ha":746,"x_min":-3,"x_max":1003,"o":"m 325 1085 l 1003 1085 l 930 814 l 659 814 l 677 882 l 541 882 l 505 746 l 912 746 l 675 -136 l -3 -136 l 71 136 l 342 136 l 323 68 l 459 68 l 495 203 l 88 203 l 325 1085 m 586 543 l 450 543 l 414 407 l 550 407 l 586 543 z "},"©":{"ha":678,"x_min":106,"x_max":880,"o":"m 623 678 l 419 678 l 365 475 l 568 475 l 586 543 l 654 543 l 618 407 l 279 407 l 370 746 l 709 746 l 672 610 l 604 610 l 623 678 m 106 271 l 270 882 l 880 882 l 717 271 l 106 271 m 320 814 l 193 339 l 667 339 l 795 814 l 320 814 z "},"®":{"ha":678,"x_min":106,"x_max":880,"o":"m 106 271 l 270 882 l 880 882 l 717 271 l 106 271 m 320 814 l 193 339 l 667 339 l 795 814 l 320 814 m 586 543 l 382 543 l 347 407 l 279 407 l 370 746 l 709 746 l 672 610 l 595 574 l 654 543 l 618 407 l 550 407 l 586 543 m 604 610 l 623 678 l 419 678 l 401 610 l 604 610 z "},"µ":{"ha":746,"x_min":-3,"x_max":948,"o":"m 270 882 l 541 882 l 359 203 l 495 203 l 677 882 l 948 882 l 712 0 l 305 0 l 269 -136 l -3 -136 l 270 882 z "},"¶":{"ha":814,"x_min":133,"x_max":1016,"o":"m 1016 882 l 962 678 l 894 678 l 675 -136 l 472 -136 l 690 678 l 555 678 l 336 -136 l 133 -136 l 315 543 l 179 543 l 270 882 l 1016 882 z "},"±":{"ha":746,"x_min":-3,"x_max":876,"o":"m 640 610 l 876 610 l 821 407 l 586 407 l 513 136 l 310 136 l 382 407 l 143 407 l 197 610 l 437 610 l 509 882 l 713 882 l 640 610 m 675 -136 l -3 -136 l 52 68 l 730 68 l 675 -136 z "},"™":{"ha":678,"x_min":252,"x_max":880,"o":"m 473 882 l 456 814 l 388 814 l 333 610 l 265 610 l 320 814 l 252 814 l 270 882 l 473 882 m 591 814 l 536 610 l 469 610 l 541 882 l 880 882 l 808 610 l 740 610 l 795 814 l 727 814 l 672 610 l 604 610 l 659 814 l 591 814 z "},"Œ":{"ha":1153,"x_min":34,"x_max":1355,"o":"m 34 0 l 270 882 l 1355 882 l 1301 678 l 894 678 l 857 543 l 1264 543 l 1210 339 l 803 339 l 766 203 l 1173 203 l 1119 0 l 34 0 m 623 678 l 487 678 l 359 203 l 495 203 l 623 678 z "},"œ":{"ha":1153,"x_min":34,"x_max":1355,"o":"m 34 0 l 270 882 l 1355 882 l 1301 678 l 894 678 l 857 543 l 1264 543 l 1210 339 l 803 339 l 766 203 l 1173 203 l 1119 0 l 34 0 m 623 678 l 487 678 l 359 203 l 495 203 l 623 678 z "},"؉":{"ha":1017,"x_min":34,"x_max":1038,"o":"m 487 678 l 283 678 l 338 882 l 541 882 l 487 678 m 712 0 l 509 0 l 563 203 l 766 203 l 712 0 m 745 882 l 1016 882 l 305 0 l 34 0 l 745 882 m 983 0 l 780 0 l 834 203 l 1038 203 l 983 0 z "},"«":{"ha":814,"x_min":143,"x_max":925,"o":"m 143 407 l 487 678 l 586 543 l 414 407 l 513 271 l 342 136 l 143 407 m 482 407 l 826 678 l 925 543 l 753 407 l 852 271 l 681 136 l 482 407 z "},"»":{"ha":814,"x_min":106,"x_max":889,"o":"m 889 407 l 545 136 l 446 271 l 618 407 l 518 543 l 690 678 l 889 407 m 550 407 l 206 136 l 106 271 l 279 407 l 179 543 l 351 678 l 550 407 z "},"¯":{"ha":543,"x_min":288,"x_max":818,"o":"m 763 949 l 288 949 l 343 1153 l 818 1153 l 763 949 z "}}}
